<svg width="43" height="43" viewBox="0 0 43 43" fill="none" xmlns="http://www.w3.org/2000/svg">
<g id="ion:calendar-outline">
<path id="Vector" d="M34.9375 6.71875H8.0625C5.8361 6.71875 4.03125 8.5236 4.03125 10.75V34.9375C4.03125 37.1639 5.8361 38.9688 8.0625 38.9688H34.9375C37.1639 38.9688 38.9688 37.1639 38.9688 34.9375V10.75C38.9688 8.5236 37.1639 6.71875 34.9375 6.71875Z" stroke="#53DBBB" stroke-width="2" stroke-linejoin="round"/>
<path id="Vector_2" d="M24.8594 21.5C25.9726 21.5 26.875 20.5976 26.875 19.4844C26.875 18.3712 25.9726 17.4688 24.8594 17.4688C23.7462 17.4688 22.8438 18.3712 22.8438 19.4844C22.8438 20.5976 23.7462 21.5 24.8594 21.5Z" fill="#53DBBB"/>
<path id="Vector_3" d="M31.5781 21.5C32.6913 21.5 33.5938 20.5976 33.5938 19.4844C33.5938 18.3712 32.6913 17.4688 31.5781 17.4688C30.4649 17.4688 29.5625 18.3712 29.5625 19.4844C29.5625 20.5976 30.4649 21.5 31.5781 21.5Z" fill="#53DBBB"/>
<path id="Vector_4" d="M24.8594 28.2188C25.9726 28.2188 26.875 27.3163 26.875 26.2031C26.875 25.0899 25.9726 24.1875 24.8594 24.1875C23.7462 24.1875 22.8438 25.0899 22.8438 26.2031C22.8438 27.3163 23.7462 28.2188 24.8594 28.2188Z" fill="#53DBBB"/>
<path id="Vector_5" d="M31.5781 28.2188C32.6913 28.2188 33.5938 27.3163 33.5938 26.2031C33.5938 25.0899 32.6913 24.1875 31.5781 24.1875C30.4649 24.1875 29.5625 25.0899 29.5625 26.2031C29.5625 27.3163 30.4649 28.2188 31.5781 28.2188Z" fill="#53DBBB"/>
<path id="Vector_6" d="M11.4219 28.2188C12.5351 28.2188 13.4375 27.3163 13.4375 26.2031C13.4375 25.0899 12.5351 24.1875 11.4219 24.1875C10.3087 24.1875 9.40625 25.0899 9.40625 26.2031C9.40625 27.3163 10.3087 28.2188 11.4219 28.2188Z" fill="#53DBBB"/>
<path id="Vector_7" d="M18.1406 28.2188C19.2538 28.2188 20.1562 27.3163 20.1562 26.2031C20.1562 25.0899 19.2538 24.1875 18.1406 24.1875C17.0274 24.1875 16.125 25.0899 16.125 26.2031C16.125 27.3163 17.0274 28.2188 18.1406 28.2188Z" fill="#53DBBB"/>
<path id="Vector_8" d="M11.4219 34.9375C12.5351 34.9375 13.4375 34.0351 13.4375 32.9219C13.4375 31.8087 12.5351 30.9062 11.4219 30.9062C10.3087 30.9062 9.40625 31.8087 9.40625 32.9219C9.40625 34.0351 10.3087 34.9375 11.4219 34.9375Z" fill="#53DBBB"/>
<path id="Vector_9" d="M18.1406 34.9375C19.2538 34.9375 20.1562 34.0351 20.1562 32.9219C20.1562 31.8087 19.2538 30.9062 18.1406 30.9062C17.0274 30.9062 16.125 31.8087 16.125 32.9219C16.125 34.0351 17.0274 34.9375 18.1406 34.9375Z" fill="#53DBBB"/>
<path id="Vector_10" d="M24.8594 34.9375C25.9726 34.9375 26.875 34.0351 26.875 32.9219C26.875 31.8087 25.9726 30.9062 24.8594 30.9062C23.7462 30.9062 22.8438 31.8087 22.8438 32.9219C22.8438 34.0351 23.7462 34.9375 24.8594 34.9375Z" fill="#53DBBB"/>
<path id="Vector_11" d="M10.75 4.03125V6.71875M32.25 4.03125V6.71875" stroke="#53DBBB" stroke-width="3" stroke-linecap="round" stroke-linejoin="round"/>
<path id="Vector_12" d="M38.9688 13.4375H4.03125" stroke="#53DBBB" stroke-width="3" stroke-linejoin="round"/>
</g>
</svg>
