<svg width="29" height="29" viewBox="0 0 29 29" fill="none" xmlns="http://www.w3.org/2000/svg">
<g id="feather">
<path id="Fill" opacity="0.12" d="M11.3068 17.7386H21.7045L17.6247 21.8185C17.4249 22.0183 17.325 22.1182 17.2084 22.1896C17.105 22.253 16.9923 22.2996 16.8744 22.3279C16.7415 22.3599 16.6002 22.3599 16.3176 22.3599H6.68555L11.3068 17.7386Z" fill="white"/>
<path id="Icon" d="M19.394 9.65151L3.21973 25.8257M21.7046 17.7386H11.3068M8.53412 22.3598H16.3177C16.6003 22.3598 16.7416 22.3598 16.8745 22.3279C16.9924 22.2996 17.1051 22.2529 17.2085 22.1896C17.3251 22.1181 17.425 22.0182 17.6248 21.8184L23.4375 16.0057C23.7136 15.7296 23.8516 15.5916 23.9627 15.4693C26.3659 12.8255 26.3659 8.78812 23.9627 6.14427C23.8516 6.02206 23.7136 5.88402 23.4375 5.60794C23.1615 5.33187 23.0234 5.19383 22.9012 5.08274C20.2574 2.67953 16.22 2.67953 13.5761 5.08274C13.4539 5.19383 13.3159 5.33187 13.0398 5.60794L7.22704 11.4207C7.02723 11.6205 6.92733 11.7204 6.85588 11.837C6.79254 11.9404 6.74586 12.0531 6.71756 12.171C6.68564 12.3039 6.68564 12.4452 6.68564 12.7278V20.5114C6.68564 21.1584 6.68564 21.4819 6.81156 21.729C6.92232 21.9464 7.09906 22.1232 7.31644 22.2339C7.56357 22.3598 7.88709 22.3598 8.53412 22.3598Z" stroke="white" stroke-width="3.33333" stroke-linecap="round" stroke-linejoin="round"/>
</g>
</svg>
