<svg width="27" height="27" viewBox="0 0 27 27" fill="none" xmlns="http://www.w3.org/2000/svg">
<g id="line-chart-up-01">
<path id="Icon" d="M23.3865 23.3864H5.37135C4.75614 23.3864 4.44853 23.3864 4.21355 23.2666C4.00686 23.1613 3.83881 22.9933 3.7335 22.7866C3.61377 22.5516 3.61377 22.244 3.61377 21.6288V3.61365M22.288 9.10607L17.9832 13.7007C17.82 13.8748 17.7385 13.9618 17.6401 14.0068C17.5532 14.0466 17.4575 14.0629 17.3624 14.0544C17.2546 14.0447 17.1487 13.9897 16.9369 13.8797L13.3588 12.0218C13.147 11.9119 13.0411 11.8569 12.9334 11.8472C12.8382 11.8386 12.7425 11.855 12.6557 11.8947C12.5572 11.9397 12.4757 12.0268 12.3125 12.2009L8.00771 16.7955" stroke="white" stroke-width="3.33333" stroke-linecap="round" stroke-linejoin="round"/>
</g>
</svg>
