<svg width="30" height="29" viewBox="0 0 30 29" fill="none" xmlns="http://www.w3.org/2000/svg">
<g id="linkedin">
<path id="Vector" d="M25.4219 3.17188H4.57812C4.07686 3.17188 3.67188 3.57686 3.67188 4.07812V24.9219C3.67188 25.4231 4.07686 25.8281 4.57812 25.8281H25.4219C25.9231 25.8281 26.3281 25.4231 26.3281 24.9219V4.07812C26.3281 3.57686 25.9231 3.17188 25.4219 3.17188ZM10.3923 22.4778H7.03066V11.6651H10.3923V22.4778ZM8.71289 10.1868C8.32753 10.1868 7.95082 10.0725 7.6304 9.85845C7.30998 9.64435 7.06024 9.34004 6.91277 8.98401C6.7653 8.62798 6.72671 8.23622 6.80189 7.85826C6.87707 7.4803 7.06264 7.13312 7.33514 6.86063C7.60763 6.58813 7.95481 6.40256 8.33277 6.32738C8.71073 6.2522 9.10249 6.29078 9.45853 6.43826C9.81456 6.58573 10.1189 6.83547 10.333 7.15589C10.5471 7.4763 10.6613 7.85301 10.6613 8.23838C10.6585 9.31455 9.78623 10.1868 8.71289 10.1868ZM22.9778 22.4778H19.619V17.2188C19.619 15.9642 19.5964 14.3527 17.8717 14.3527C16.1243 14.3527 15.8553 15.7178 15.8553 17.1281V22.4778H12.4993V11.6651H15.7222V13.1435H15.7675C16.2149 12.2938 17.3109 11.3961 18.9479 11.3961C22.352 11.3961 22.9778 13.6362 22.9778 16.5476V22.4778Z" fill="white"/>
</g>
</svg>
