<svg
   width="19.850447"
   height="18.956215"
   viewBox="0 0 19.850447 18.956215"
   fill="none"
   version="1.1"
   id="svg1"
   xmlns="http://www.w3.org/2000/svg"
   xmlns:svg="http://www.w3.org/2000/svg">
  <defs
     id="defs1" />
  <g
     id="Components/Rate-Star/Default"
     transform="translate(-13.074931,-25.022366)">
    <path
       id="Union"
       d="M 32.2838,31.6974 26.333,30.8325 23.6728,25.4396 c -0.0726,-0.1477 -0.1922,-0.2672 -0.3398,-0.3399 -0.3703,-0.1828 -0.8203,-0.0304 -1.0055,0.3399 l -2.6601,5.3929 -5.9508,0.8649 c -0.1641,0.0234 -0.3141,0.1008 -0.4289,0.218 -0.1389,0.1427 -0.2154,0.3346 -0.2127,0.5337 0.0026,0.1991 0.0842,0.389 0.2267,0.528 l 4.3055,4.1976 -1.0172,5.9274 c -0.0238,0.1379 -0.0086,0.2797 0.0441,0.4093 0.0526,0.1297 0.1405,0.242 0.2537,0.3242 0.1133,0.0822 0.2472,0.1311 0.3868,0.1411 0.1396,0.0099 0.2792,-0.0194 0.4029,-0.0848 l 5.3227,-2.7984 5.3226,2.7984 c 0.1453,0.0774 0.3141,0.1031 0.4758,0.075 0.4078,-0.0703 0.682,-0.457 0.6117,-0.8648 l -1.0172,-5.9274 4.3055,-4.1976 c 0.1172,-0.1149 0.1945,-0.2649 0.218,-0.4289 0.0633,-0.4102 -0.2227,-0.7899 -0.6328,-0.8508 z"
       fill="#fadb14" />
  </g>
</svg>
