<svg width="27" height="26" viewBox="0 0 27 26" fill="none" xmlns="http://www.w3.org/2000/svg">
<g id="sticker-circle" clip-path="url(#clip0_607_18)">
<path id="Fill" opacity="0.12" d="M4.42846 10.5967C4.68354 10.5786 4.94109 10.5693 5.20079 10.5693C11.127 10.5693 15.9311 15.3735 15.9311 21.2996C15.9311 21.5593 15.9219 21.8169 15.9037 22.072C15.872 22.5176 15.8562 22.7404 15.7263 22.8781C15.6208 22.9898 15.4407 23.057 15.2878 23.0417C15.0995 23.0228 14.9282 22.8516 14.5857 22.5091L3.99133 11.9147C3.64882 11.5722 3.47757 11.401 3.45871 11.2126C3.44339 11.0597 3.51058 10.8797 3.62236 10.7742C3.75998 10.6442 3.98281 10.6284 4.42846 10.5967Z" fill="white"/>
<g id="Icon">
<path d="M24.1063 13.1242C24.1063 7.19804 19.3022 2.39392 13.376 2.39392C8.56612 2.39392 4.4954 5.55861 3.13248 9.91935C3.04517 10.1987 3.00152 10.3384 3.00564 10.513C3.00899 10.655 3.05215 10.8305 3.11508 10.9578C3.19247 11.1145 3.31196 11.2339 3.55093 11.4729L15.0278 22.9492C15.2667 23.1882 15.3862 23.3077 15.5428 23.385C15.6702 23.448 15.8457 23.4911 15.9877 23.4945C16.1623 23.4986 16.302 23.4549 16.5813 23.3676C20.9418 22.0045 24.1063 17.9339 24.1063 13.1242Z" stroke="white" stroke-width="3.33333" stroke-linecap="round" stroke-linejoin="round"/>
<path d="M4.42799 10.5968C4.68307 10.5786 4.94062 10.5694 5.20032 10.5694C11.1265 10.5694 15.9306 15.3735 15.9306 21.2997C15.9306 21.5594 15.9214 21.8169 15.9032 22.072C15.8715 22.5177 15.8557 22.7405 15.7258 22.8781C15.6203 22.9899 15.4402 23.0571 15.2873 23.0418C15.099 23.0229 14.9277 22.8516 14.5852 22.5091L3.99085 11.9148C3.64835 11.5723 3.4771 11.401 3.45824 11.2127C3.44292 11.0598 3.51011 10.8797 3.62189 10.7742C3.75951 10.6443 3.98234 10.6284 4.42799 10.5968Z" stroke="white" stroke-width="3.33333" stroke-linecap="round" stroke-linejoin="round"/>
</g>
</g>
<defs>
<clipPath id="clip0_607_18">
<rect width="25.4545" height="25.4545" fill="white" transform="translate(0.772949 0.272705)"/>
</clipPath>
</defs>
</svg>
