<svg width="30" height="29" viewBox="0 0 30 29" fill="none" xmlns="http://www.w3.org/2000/svg">
<g id="youtube">
<path id="Vector" d="M27.1579 8.38564C27.0135 7.84767 26.7302 7.35706 26.3366 6.96293C25.943 6.5688 25.4527 6.28497 24.9149 6.13984C22.9354 5.60742 15 5.60742 15 5.60742C15 5.60742 7.06465 5.60742 5.08506 6.13701C4.54703 6.28167 4.05653 6.56534 3.66283 6.95955C3.26912 7.35375 2.98607 7.8446 2.84209 8.38281C2.3125 10.3652 2.3125 14.5 2.3125 14.5C2.3125 14.5 2.3125 18.6348 2.84209 20.6144C3.13379 21.7075 3.99473 22.5685 5.08506 22.8602C7.06465 23.3926 15 23.3926 15 23.3926C15 23.3926 22.9354 23.3926 24.9149 22.8602C26.0081 22.5685 26.8662 21.7075 27.1579 20.6144C27.6875 18.6348 27.6875 14.5 27.6875 14.5C27.6875 14.5 27.6875 10.3652 27.1579 8.38564ZM12.4795 18.2949V10.7051L19.0498 14.4717L12.4795 18.2949Z" fill="white"/>
</g>
</svg>
