<svg width="158" height="66" viewBox="0 0 158 66" fill="none" xmlns="http://www.w3.org/2000/svg">
<g id="Group">
<g id="Group_2">
<g id="Group_3">
<path id="Vector" d="M99.7103 7.76231C102.566 7.11661 105.302 6.49917 108.066 5.875C108.145 4.40739 108.553 3.11197 109.611 2.14612C110.457 1.37398 111.452 0.950241 112.607 0.950241C114.857 0.950241 116.673 2.41919 117.11 4.69392C117.574 7.10451 116.282 9.11423 114.51 9.91462C112.728 10.7177 110.224 10.5307 108.476 7.62106C105.585 8.27483 102.665 8.93666 99.7103 9.60523V48.7141C99.1557 48.893 93.7461 48.9549 92.4837 48.8136C92.4668 48.7961 92.4473 48.7813 92.4317 48.7625C92.4162 48.745 92.3993 48.7275 92.3889 48.706C92.3785 48.6845 92.3746 48.6589 92.3707 48.6347C92.3629 48.5863 92.3577 48.5379 92.3525 48.4881C92.3499 48.4639 92.3499 48.4383 92.3486 48.4141C92.3486 48.3899 92.3486 48.3643 92.3486 48.3401C92.3486 48.2661 92.3486 48.1922 92.3486 48.1182C92.3486 35.9832 92.3486 23.8468 92.3486 11.7118C92.3486 11.6876 92.3486 11.662 92.346 11.6378C92.3447 11.6136 92.3421 11.588 92.3395 11.5638C92.3369 11.5396 92.3369 11.5141 92.3291 11.4912C92.3214 11.4683 92.3058 11.4495 92.2369 11.3338C90.6745 11.6015 89.1029 12.0185 87.4521 12.3804C88.3015 14.8596 87.8742 16.9917 85.839 18.536C84.0817 19.8691 82.1854 19.7265 80.3346 18.6597C79.6995 19.3579 79.0683 20.0493 78.389 20.7959C78.5527 20.9923 78.793 21.2909 79.0423 21.5815C81.1282 24.0163 82.3426 26.86 82.7322 30.0804C83.0219 32.4749 82.8933 34.8451 82.2906 37.1831C81.6906 39.5143 80.5944 41.5657 79.0514 43.3616C76.7889 45.9954 74.0315 47.802 70.6949 48.5863C69.6805 48.8244 68.6389 48.9387 67.5037 49.1284C67.4894 51.1287 67.4985 53.164 67.4985 55.2558C69.0818 55.7024 70.3286 56.5741 71.017 58.1426C71.4859 59.2133 71.582 60.3231 71.2832 61.4638C70.6962 63.7063 68.6986 65.2506 66.5101 65.1537C64.1398 65.0488 62.2267 63.3229 61.8578 60.9298C61.6526 59.5981 61.9825 58.3914 62.7254 57.2951C63.4748 56.1893 64.5632 55.6217 65.8075 55.2544V49.0948C65.2126 49.0221 64.6515 48.9508 64.0904 48.8836C60.8837 48.5002 58.1172 47.112 55.743 44.8843C53.6974 42.9647 52.1258 40.6913 51.3192 37.931C50.0321 33.5255 50.0256 29.1455 52.0816 24.9862C54.287 20.5255 57.7821 17.5647 62.5124 16.3581C66.4218 15.3613 70.2663 15.6949 73.9263 17.5042C74.9913 18.0315 75.9641 18.7593 77.0006 19.4077C77.5981 18.7472 78.2423 18.0369 78.9618 17.2432C78.3332 16.229 78.0721 14.9524 78.2695 13.5076C77.8318 13.4511 77.4409 13.3893 77.0474 13.3502C73.5159 13.0032 69.9857 12.6575 66.453 12.3185C63.68 12.0521 60.9058 11.8006 58.1328 11.5329C55.3365 11.2612 52.5414 10.9719 49.7451 10.7002C47.4228 10.4742 45.098 10.2698 42.7744 10.0451C39.978 9.77472 37.183 9.48954 34.3854 9.21916C31.6124 8.95012 28.8382 8.69587 26.0652 8.42818C23.7663 8.20757 21.4674 7.9735 19.1685 7.75154C16.3008 7.47443 13.4317 7.20405 10.5639 6.93098C10.0717 6.8839 9.57942 6.83816 9.06509 6.78973C8.61051 8.24523 7.79615 9.3187 6.49085 9.9496C5.52713 10.415 4.52835 10.5065 3.49969 10.2348C1.23457 9.63616 -0.110998 7.67622 0.00719379 5.23738C0.107202 3.16847 1.86319 1.14933 4.09195 0.877599C6.44539 0.591073 8.30139 2.03985 9.20926 4.98313C10.2509 5.08671 11.3133 5.19433 12.3758 5.29926C15.2669 5.58309 18.1568 5.86827 21.0492 6.14538C23.8455 6.41442 26.6445 6.67001 29.4408 6.93905C31.7163 7.15832 33.9905 7.39238 36.2648 7.61165C39.1325 7.88876 42.0016 8.15242 44.8694 8.43087C47.6423 8.69991 50.4127 8.98509 53.1856 9.25413C55.982 9.52452 58.7809 9.77741 61.5772 10.0491C64.3736 10.3209 67.1686 10.6087 69.965 10.8818C72.2405 11.1038 74.516 11.315 76.7915 11.5289C77.3604 11.5827 77.9357 11.5961 78.4968 11.6957C78.8852 11.7643 79.0995 11.6217 79.3462 11.3378C80.6749 9.80701 82.3413 9.2891 84.257 9.76126C84.8207 9.89982 85.3467 10.2361 85.865 10.528C86.1247 10.6747 86.3481 10.8038 86.6598 10.7298C88.4483 10.3141 90.2394 9.91193 92.0278 9.50164C92.1174 9.48147 92.2006 9.42497 92.3356 9.36175V1.11973C92.8746 0.917954 98.7803 0.870873 99.7116 1.06189C99.7116 2.14074 99.7116 3.24245 99.7116 4.34417C99.7116 5.44588 99.7116 6.50724 99.7116 7.75961L99.7103 7.76231ZM65.8075 37.6135C65.5841 37.5369 65.3828 37.4723 65.184 37.3997C61.8175 36.1701 61.2058 32.4735 62.4708 30.1585C63.4319 28.3989 65.7555 27.082 68.2168 27.9644C68.6363 28.1151 68.9038 28.0801 69.2116 27.7438C70.1455 26.7255 71.1105 25.7368 72.0612 24.7346C72.1366 24.6553 72.1872 24.549 72.2742 24.4199C71.9872 24.2073 71.7482 24.0082 71.4884 23.8414C69.874 22.8043 68.0908 22.4666 66.2244 22.5352C63.7242 22.6267 61.598 23.5912 59.9563 25.5754C58.325 27.5447 57.7549 29.9204 57.738 32.4345C57.7302 33.6264 57.9003 34.829 58.2198 36.0033C59.19 39.5842 61.9071 42.0123 65.4529 42.393C65.5594 42.4038 65.6724 42.3473 65.8075 42.3163V37.6149V37.6135ZM73.4925 25.6978C72.3639 26.8937 71.2871 28.0331 70.2156 29.1684C72.6963 32.1749 71.4001 36.5656 67.5531 37.6243V42.315C67.6609 42.35 67.7284 42.397 67.7907 42.3903C68.9116 42.2719 69.9961 42.0016 70.9936 41.4487C73.099 40.2824 74.4368 38.461 75.1095 36.115C75.768 33.8201 75.7485 31.4969 75.1992 29.1886C74.903 27.9416 74.3796 26.782 73.4925 25.6978ZM69.8013 60.2397C69.8221 58.4762 68.4142 56.9843 66.714 56.9332C65.3009 56.8902 63.4787 58.0027 63.4514 60.1442C63.4254 62.1486 64.997 63.4265 66.6218 63.4507C68.3116 63.4763 69.7805 61.9844 69.8013 60.2397ZM83.044 17.7356C84.5389 17.8674 86.1936 16.463 86.2131 14.534C86.2312 12.7799 84.7753 11.2894 83.0673 11.2854C81.3036 11.2827 79.8437 12.7664 79.858 14.5488C79.8736 16.5343 81.6244 17.8513 83.0453 17.7356H83.044ZM69.7948 32.5973C69.7948 30.8337 68.3687 29.3904 66.6387 29.4025C64.9334 29.4146 63.5774 30.8391 63.5307 32.5798C63.4891 34.1389 64.684 35.9092 66.6582 35.9132C68.6713 35.9172 69.9637 33.9923 69.7948 32.5973ZM115.654 5.40283C115.665 3.68098 114.293 2.24701 112.626 2.23894C110.957 2.22952 109.58 3.64332 109.572 5.3719C109.564 7.1072 110.919 8.52235 112.596 8.53176C114.267 8.54118 115.643 7.1341 115.654 5.40283ZM1.49303 5.50372C1.49953 7.24979 2.87237 8.65686 4.55173 8.63668C6.20381 8.61651 7.53899 7.22557 7.55068 5.51179C7.56237 3.7617 6.2129 2.35597 4.52315 2.35328C2.82821 2.35059 1.48784 3.74555 1.49303 5.50372Z" fill="white"/>
</g>
<g id="Group_4">
<path id="Vector_2" d="M132.135 19.7144C132.895 19.0539 133.473 18.5024 134.099 18.014C136.303 16.2949 138.755 15.286 141.548 15.1878C145.121 15.0627 148.326 16.0662 151.075 18.4472C153.886 20.8833 155.698 23.9867 156.488 27.6954C157.359 31.7875 157.154 35.8244 155.731 39.7672C154.936 41.9706 153.72 43.9212 152.107 45.5583C149.528 48.1747 146.427 49.5952 142.778 49.7795C138.816 49.9786 135.458 48.6172 132.559 45.8905C132.474 45.8112 132.373 45.752 132.169 45.604V48.7195C131.564 48.8876 125.866 48.9307 124.906 48.7988C124.75 48.2635 124.716 1.87439 124.881 1.00405H132.135V19.7157V19.7144ZM131.713 32.5381C131.691 33.7797 131.846 34.9998 132.173 36.189C133.581 41.3034 137.968 43.9454 142.87 42.7038C145.248 42.1011 146.982 40.5299 148.105 38.3319C150.017 34.5882 149.958 30.7315 148.199 26.9717C146.939 24.2773 144.843 22.5164 141.883 22.1223C138.455 21.6663 135.284 23.0101 133.312 26.1982C132.116 28.1326 131.724 30.2836 131.714 32.5381H131.713Z" fill="white"/>
</g>
<g id="Group_5">
<path id="Vector_3" d="M44.7613 48.8513H37.1516C37.1386 48.511 37.1152 48.2002 37.1152 47.8895C37.1126 42.0446 37.1152 36.1997 37.1126 30.3549C37.1126 28.9935 36.9515 27.6577 36.5125 26.361C35.8424 24.3795 34.5319 23.1554 32.5538 22.7115C31.229 22.4142 29.8912 22.433 28.5963 22.8339C26.4675 23.4917 25.3064 25.1046 24.8479 27.2703C24.6453 28.2254 24.5492 29.2222 24.5453 30.2015C24.518 36.0962 24.5323 41.9908 24.5323 47.8841V48.7396C23.9738 48.9132 18.0448 48.9656 16.9512 48.8163C16.9356 48.6186 16.9044 48.406 16.9044 48.1935C16.9018 41.7809 16.8875 35.3684 16.9122 28.9572C16.92 26.973 17.2382 25.0158 17.998 23.1877C19.0033 20.7717 20.7476 19.0229 22.9257 17.7127C24.7492 16.615 26.7351 16.0433 28.8158 15.851C31.3965 15.6115 33.9513 15.7541 36.4242 16.6594C39.1582 17.6616 41.3701 19.3633 42.9702 21.8882C43.8638 23.298 44.3573 24.8584 44.5262 26.5224C44.647 27.7196 44.747 28.9263 44.7509 30.1289C44.7743 36.0235 44.7613 41.9182 44.7613 47.8115C44.7613 48.1276 44.7613 48.4437 44.7613 48.8499V48.8513Z" fill="white"/>
</g>
<g id="Group_6">
<path id="Vector_4" d="M8.88074 48.8405H1.38401C1.21257 48.2634 1.19049 16.5854 1.36712 15.8268H8.808C8.97035 16.3837 9.04179 47.2626 8.88074 48.8405Z" fill="white"/>
</g>
<g id="Group_7">
<path id="Vector_5" d="M109.042 15.8241H116.288V48.8594C113.866 48.8648 111.476 48.8634 109.106 48.8594C108.949 48.2433 108.897 17.0872 109.041 15.8241H109.042Z" fill="white"/>
</g>
</g>
</g>
</svg>
